<?xml version="1.0" standalone="no"?>
<!DOCTYPE svg PUBLIC "-//W3C//DTD SVG 20010904//EN"
 "http://www.w3.org/TR/2001/REC-SVG-20010904/DTD/svg10.dtd">
<svg version="1.0" xmlns="http://www.w3.org/2000/svg"
 width="512.000000pt" height="512.000000pt" viewBox="0 0 512.000000 512.000000"
 preserveAspectRatio="xMidYMid meet">

<g transform="translate(0.000000,512.000000) scale(0.100000,-0.100000)"
fill="#000000" stroke="none">
<path d="M1135 4091 c-103 -48 -152 -167 -110 -269 11 -26 202 -223 628 -649
l612 -613 -617 -617 c-341 -342 -622 -631 -627 -646 -26 -68 -6 -173 42 -226
53 -57 170 -79 245 -44 24 10 256 237 644 627 l607 611 613 -612 c426 -426
624 -617 650 -628 167 -69 342 106 273 273 -11 26 -202 223 -628 650 l-612
612 612 613 c336 336 618 626 627 644 34 68 11 188 -45 240 -53 48 -158 68
-226 42 -15 -5 -304 -286 -646 -627 l-617 -617 -613 612 c-426 426 -623 617
-649 628 -50 20 -114 19 -163 -4z"/>
</g>
</svg>
