<?xml version="1.0" standalone="no"?>
<!DOCTYPE svg PUBLIC "-//W3C//DTD SVG 20010904//EN"
 "http://www.w3.org/TR/2001/REC-SVG-20010904/DTD/svg10.dtd">
<svg version="1.0" xmlns="http://www.w3.org/2000/svg"
 width="512.000000pt" height="512.000000pt" viewBox="0 0 512.000000 512.000000"
 preserveAspectRatio="xMidYMid meet">

<g transform="translate(0.000000,512.000000) scale(0.100000,-0.100000)"
fill="#000000" stroke="none">
<path d="M1353 3599 c-17 -11 -42 -40 -54 -65 -36 -74 -16 -145 55 -198 27
-21 34 -21 1184 -24 793 -2 1169 0 1194 8 50 14 95 68 103 124 9 57 -20 121
-68 154 l-33 22 -1175 0 c-1165 0 -1174 0 -1206 -21z"/>
<path d="M2223 2699 c-57 -28 -83 -72 -83 -140 0 -66 28 -111 86 -139 39 -19
62 -20 760 -20 l720 0 44 23 c48 24 90 88 90 137 0 49 -42 113 -90 138 l-44
22 -721 0 c-710 0 -721 0 -762 -21z"/>
<path d="M1360 1788 c-75 -52 -98 -125 -61 -200 12 -24 34 -52 49 -63 27 -20
43 -20 1212 -20 1169 0 1185 0 1212 20 94 68 81 217 -23 270 -24 13 -190 15
-1192 15 l-1164 0 -33 -22z"/>
</g>
</svg>
